<?xml version="1.0" encoding="UTF-8"?>
<svg width="52px" height="52px" viewBox="0 0 52 52" version="1.1" xmlns="http://www.w3.org/2000/svg" xmlns:xlink="http://www.w3.org/1999/xlink">
    <!-- Generator: Sketch 52.3 (67297) - http://www.bohemiancoding.com/sketch -->
    <title>Resources /Brand/Itau</title>
    <desc>Created with Sketch.</desc>
    <g id="UI_KIT_EV_WEB" stroke="none" stroke-width="1" fill="none" fill-rule="evenodd">
        <g id="Desktop" transform="translate(-32.000000, -3507.000000)">
            <g id="Resources-/Brand/Itau" transform="translate(32.000000, 3507.000000)">
                <g id="Group-10">
                    <path d="M8.66922943,2.77555756e-17 L43.3307706,2.77555756e-17 C48.1165473,2.77555756e-17 52,3.88247941 52,8.66666667 L52,43.3333333 C52,48.1175206 48.1165473,52 43.3307706,52 L8.66922943,52 C3.86825092,52 0,48.1175206 0,43.3333333 L0,8.66666667 C0,3.88247941 3.86825092,2.77555756e-17 8.66922943,2.77555756e-17" id="Fill-1" fill="#003399"></path>
                    <polygon id="Fill-4" fill="#FFFF00" points="4.3066087 43.3013913 8.32417391 43.3013913 8.32417391 26.0443478 4.3066087 26.0443478"></polygon>
                    <path d="M28.6704174,38.5381217 C28.6704174,38.7511652 28.655113,38.979513 28.6095478,39.1925565 C28.6095478,39.2229913 28.579113,39.3142957 28.5638087,39.3294261 C28.5486783,39.3447304 28.5486783,39.3751652 28.5333739,39.3902957 C28.1834609,40.2273391 27.2246783,41.0337739 25.9617217,41.0337739 C24.8507652,41.0337739 24.0898957,40.455513 24.0898957,39.3751652 C24.0898957,38.1576 25.1246783,37.5337739 26.6768522,37.2902957 C27.0420696,37.2294261 27.4377217,37.1989913 27.8638087,37.183687 C28.1225913,37.1685565 28.3812,37.1685565 28.655287,37.1685565 L28.655287,38.5381217 L28.6704174,38.5381217 Z M26.3725043,30.0009043 C23.907287,30.0009043 22.0658957,30.6400348 21.0615478,31.2182957 L21.8224174,33.759687 C22.7354609,33.2118609 24.2876348,32.7249043 25.7029391,32.7249043 C28.0617217,32.7249043 28.5486783,33.9118609 28.5486783,34.5205565 L28.5486783,34.6576 C23.3290261,34.6422957 20.1027652,36.331513 20.1027652,39.679513 C20.1027652,41.6426435 21.6702435,43.6360348 24.5464174,43.6360348 C26.2660696,43.6360348 27.7116348,43.0122087 28.5944174,41.9774261 L28.6399826,41.9774261 L29.0813739,43.3165565 L32.3532,43.3165565 L32.3532,35.6619478 C32.3532,32.5422957 30.8161565,30.0009043 26.3725043,30.0009043 Z" id="Fill-6" fill="#FFFF00"></path>
                    <path d="M43.4621565,30.3813565 L43.4621565,37.9597913 C43.4621565,38.2641391 43.4317217,38.5380522 43.325113,38.7815304 C43.0056348,39.5577043 42.2143304,40.440313 40.9056348,40.440313 C39.2619826,40.440313 38.5468522,39.2380522 38.5468522,37.2142261 L38.5468522,30.3660522 L34.6205913,30.3660522 L34.6205913,37.9293565 C34.6205913,38.9490087 34.7423304,39.8011826 34.9858087,40.516487 C35.229287,41.2316174 35.5640696,41.8098783 35.9901565,42.2664 C36.4162435,42.7230957 36.9185043,43.0730087 37.5120696,43.2860522 C38.1054609,43.4990957 38.7598957,43.6057043 39.4598957,43.6057043 C40.0837217,43.6057043 40.6317217,43.5295304 41.1033739,43.3773565 C41.5752,43.2251826 42.001287,43.0425739 42.3360696,42.8295304 C42.6859826,42.616487 42.9752,42.388313 43.2033739,42.1446609 C43.4317217,41.9011826 43.6143304,41.6730087 43.7513739,41.4750957 L44.2534609,43.316487 L47.4339826,43.316487 L47.4339826,30.3813565 L43.4621565,30.3813565 Z" id="Fill-7" fill="#FFFF00"></path>
                    <path d="M12.1134087,26.0442783 L12.1134087,30.3661913 L10.2720174,30.3661913 L10.2720174,33.3183652 L12.1134087,33.3183652 L12.1134087,38.5837565 C12.1134087,40.3185391 12.4634957,41.6274087 13.2090609,42.418713 C13.8634957,43.118713 14.9895826,43.6208 16.3744522,43.6208 C17.5614087,43.6208 18.0179304,43.4381913 18.5506261,43.2404522 L18.5506261,40.2425391 C18.4440174,40.2881043 18.1245391,40.3489739 17.728713,40.3489739 C16.328713,40.3489739 16.0092348,39.4816696 16.0092348,37.898887 L16.0092348,33.3183652 L18.504887,33.3183652 L18.504887,30.3661913 L16.0092348,30.3661913 L16.0092348,26.0442783 L12.1134087,26.0442783 Z" id="Fill-8" fill="#FFFF00"></path>
                    <polygon id="Fill-9" fill="#FFFF00" points="41.9708 26.0442783 39.5511478 29.5291478 42.3513217 29.5291478 45.7753217 26.0442783"></polygon>
                </g>
            </g>
        </g>
    </g>
</svg>